<mxfile host="Electron" modified="2024-05-10T11:23:53.440Z" agent="Mozilla/5.0 (Windows NT 10.0; Win64; x64) AppleWebKit/537.36 (KHTML, like Gecko) draw.io/24.2.5 Chrome/120.0.6099.109 Electron/28.1.0 Safari/537.36" etag="SXtIm8LuDRd8ep3n3sPh" version="24.2.5" type="device">
  <diagram name="P치gina-1" id="Dn-Kk1RUSP8kjqB8YzMC">
    <mxGraphModel dx="3434" dy="1520" grid="1" gridSize="10" guides="1" tooltips="1" connect="1" arrows="1" fold="1" page="1" pageScale="1" pageWidth="827" pageHeight="1169" math="0" shadow="0">
      <root>
        <mxCell id="0" />
        <mxCell id="1" parent="0" />
        <mxCell id="v8a3QN_SwFmeD_kxJxtt-43" value="" style="rounded=0;whiteSpace=wrap;html=1;fillColor=none;" vertex="1" parent="1">
          <mxGeometry x="280" y="140" width="470" height="1020" as="geometry" />
        </mxCell>
        <mxCell id="v8a3QN_SwFmeD_kxJxtt-1" value="Usuario" style="shape=umlActor;verticalLabelPosition=bottom;verticalAlign=top;html=1;" vertex="1" parent="1">
          <mxGeometry x="110" y="160" width="30" height="60" as="geometry" />
        </mxCell>
        <mxCell id="v8a3QN_SwFmeD_kxJxtt-3" value="Sistema TPV" style="text;html=1;align=center;verticalAlign=middle;resizable=0;points=[];autosize=1;strokeColor=none;fillColor=none;" vertex="1" parent="1">
          <mxGeometry x="660" y="110" width="90" height="30" as="geometry" />
        </mxCell>
        <mxCell id="v8a3QN_SwFmeD_kxJxtt-5" value="Camarero" style="shape=umlActor;verticalLabelPosition=bottom;verticalAlign=top;html=1;" vertex="1" parent="1">
          <mxGeometry y="330" width="30" height="60" as="geometry" />
        </mxCell>
        <mxCell id="v8a3QN_SwFmeD_kxJxtt-6" value="Cocinero" style="shape=umlActor;verticalLabelPosition=bottom;verticalAlign=top;html=1;" vertex="1" parent="1">
          <mxGeometry x="110" y="330" width="30" height="60" as="geometry" />
        </mxCell>
        <mxCell id="v8a3QN_SwFmeD_kxJxtt-7" value="Barman" style="shape=umlActor;verticalLabelPosition=bottom;verticalAlign=top;html=1;" vertex="1" parent="1">
          <mxGeometry x="220" y="330" width="30" height="60" as="geometry" />
        </mxCell>
        <mxCell id="v8a3QN_SwFmeD_kxJxtt-8" value="" style="endArrow=block;endSize=16;endFill=0;html=1;rounded=0;exitX=0.5;exitY=0;exitDx=0;exitDy=0;exitPerimeter=0;" edge="1" parent="1" source="v8a3QN_SwFmeD_kxJxtt-5">
          <mxGeometry width="160" relative="1" as="geometry">
            <mxPoint x="220" y="150" as="sourcePoint" />
            <mxPoint x="120" y="240" as="targetPoint" />
          </mxGeometry>
        </mxCell>
        <mxCell id="v8a3QN_SwFmeD_kxJxtt-9" value="" style="endArrow=block;endSize=16;endFill=0;html=1;rounded=0;exitX=0.5;exitY=0;exitDx=0;exitDy=0;exitPerimeter=0;" edge="1" parent="1" source="v8a3QN_SwFmeD_kxJxtt-6">
          <mxGeometry width="160" relative="1" as="geometry">
            <mxPoint x="25" y="340" as="sourcePoint" />
            <mxPoint x="125" y="240" as="targetPoint" />
          </mxGeometry>
        </mxCell>
        <mxCell id="v8a3QN_SwFmeD_kxJxtt-10" value="" style="endArrow=block;endSize=16;endFill=0;html=1;rounded=0;exitX=0.5;exitY=0;exitDx=0;exitDy=0;exitPerimeter=0;" edge="1" parent="1" source="v8a3QN_SwFmeD_kxJxtt-7">
          <mxGeometry width="160" relative="1" as="geometry">
            <mxPoint x="35" y="350" as="sourcePoint" />
            <mxPoint x="130" y="240" as="targetPoint" />
          </mxGeometry>
        </mxCell>
        <mxCell id="v8a3QN_SwFmeD_kxJxtt-11" value="Iniciar sesi칩n" style="ellipse;whiteSpace=wrap;html=1;" vertex="1" parent="1">
          <mxGeometry x="360" y="150" width="140" height="70" as="geometry" />
        </mxCell>
        <mxCell id="v8a3QN_SwFmeD_kxJxtt-12" value="Consultar pedidos pendientes" style="ellipse;whiteSpace=wrap;html=1;" vertex="1" parent="1">
          <mxGeometry x="590" y="150" width="140" height="70" as="geometry" />
        </mxCell>
        <mxCell id="v8a3QN_SwFmeD_kxJxtt-13" value="" style="endArrow=none;html=1;rounded=0;exitX=1;exitY=0.3333333333333333;exitDx=0;exitDy=0;exitPerimeter=0;entryX=0;entryY=0.5;entryDx=0;entryDy=0;" edge="1" parent="1" source="v8a3QN_SwFmeD_kxJxtt-1" target="v8a3QN_SwFmeD_kxJxtt-11">
          <mxGeometry width="50" height="50" relative="1" as="geometry">
            <mxPoint x="490" y="260" as="sourcePoint" />
            <mxPoint x="540" y="210" as="targetPoint" />
          </mxGeometry>
        </mxCell>
        <mxCell id="v8a3QN_SwFmeD_kxJxtt-14" value="&amp;lt;&amp;lt;extend&amp;gt;&amp;gt;" style="html=1;verticalAlign=bottom;labelBackgroundColor=none;endArrow=open;endFill=0;dashed=1;rounded=0;exitX=1;exitY=0.5;exitDx=0;exitDy=0;entryX=0;entryY=0.5;entryDx=0;entryDy=0;" edge="1" parent="1" source="v8a3QN_SwFmeD_kxJxtt-11" target="v8a3QN_SwFmeD_kxJxtt-12">
          <mxGeometry width="160" relative="1" as="geometry">
            <mxPoint x="550" y="200" as="sourcePoint" />
            <mxPoint x="710" y="200" as="targetPoint" />
          </mxGeometry>
        </mxCell>
        <mxCell id="v8a3QN_SwFmeD_kxJxtt-15" value="" style="endArrow=none;html=1;rounded=0;exitX=1;exitY=0.3333333333333333;exitDx=0;exitDy=0;exitPerimeter=0;entryX=0;entryY=0.5;entryDx=0;entryDy=0;" edge="1" parent="1" source="v8a3QN_SwFmeD_kxJxtt-5" target="v8a3QN_SwFmeD_kxJxtt-18">
          <mxGeometry width="50" height="50" relative="1" as="geometry">
            <mxPoint x="150" y="190" as="sourcePoint" />
            <mxPoint x="320" y="480" as="targetPoint" />
            <Array as="points">
              <mxPoint x="80" y="490" />
              <mxPoint x="200" y="490" />
            </Array>
          </mxGeometry>
        </mxCell>
        <mxCell id="v8a3QN_SwFmeD_kxJxtt-16" value="" style="endArrow=none;html=1;rounded=0;exitX=1;exitY=0.3333333333333333;exitDx=0;exitDy=0;exitPerimeter=0;entryX=0;entryY=0.5;entryDx=0;entryDy=0;" edge="1" parent="1" source="v8a3QN_SwFmeD_kxJxtt-6" target="v8a3QN_SwFmeD_kxJxtt-19">
          <mxGeometry width="50" height="50" relative="1" as="geometry">
            <mxPoint x="160" y="350" as="sourcePoint" />
            <mxPoint x="320" y="560" as="targetPoint" />
            <Array as="points">
              <mxPoint x="140" y="785" />
            </Array>
          </mxGeometry>
        </mxCell>
        <mxCell id="v8a3QN_SwFmeD_kxJxtt-17" value="" style="endArrow=none;html=1;rounded=0;exitX=1;exitY=0.3333333333333333;exitDx=0;exitDy=0;exitPerimeter=0;entryX=0;entryY=0.5;entryDx=0;entryDy=0;" edge="1" parent="1" source="v8a3QN_SwFmeD_kxJxtt-7" target="v8a3QN_SwFmeD_kxJxtt-20">
          <mxGeometry width="50" height="50" relative="1" as="geometry">
            <mxPoint x="40" y="360" as="sourcePoint" />
            <mxPoint x="330" y="640" as="targetPoint" />
            <Array as="points">
              <mxPoint x="250" y="865" />
            </Array>
          </mxGeometry>
        </mxCell>
        <mxCell id="v8a3QN_SwFmeD_kxJxtt-18" value="A침adir pedidos" style="ellipse;whiteSpace=wrap;html=1;" vertex="1" parent="1">
          <mxGeometry x="320" y="450" width="140" height="70" as="geometry" />
        </mxCell>
        <mxCell id="v8a3QN_SwFmeD_kxJxtt-19" value="Notificar pedido listo" style="ellipse;whiteSpace=wrap;html=1;" vertex="1" parent="1">
          <mxGeometry x="320" y="750" width="140" height="70" as="geometry" />
        </mxCell>
        <mxCell id="v8a3QN_SwFmeD_kxJxtt-20" value="A침adidir pedidos&lt;div&gt;de barra&lt;/div&gt;" style="ellipse;whiteSpace=wrap;html=1;" vertex="1" parent="1">
          <mxGeometry x="320" y="830" width="140" height="70" as="geometry" />
        </mxCell>
        <mxCell id="v8a3QN_SwFmeD_kxJxtt-21" value="Modificar pedido existente" style="ellipse;whiteSpace=wrap;html=1;" vertex="1" parent="1">
          <mxGeometry x="320" y="530" width="140" height="70" as="geometry" />
        </mxCell>
        <mxCell id="v8a3QN_SwFmeD_kxJxtt-22" value="Cerrar pedido existente" style="ellipse;whiteSpace=wrap;html=1;" vertex="1" parent="1">
          <mxGeometry x="320" y="610" width="140" height="70" as="geometry" />
        </mxCell>
        <mxCell id="v8a3QN_SwFmeD_kxJxtt-24" value="Generar cuenta" style="ellipse;whiteSpace=wrap;html=1;" vertex="1" parent="1">
          <mxGeometry x="510" y="610" width="140" height="70" as="geometry" />
        </mxCell>
        <mxCell id="v8a3QN_SwFmeD_kxJxtt-27" value="&amp;lt;&amp;lt;include&amp;gt;&amp;gt;" style="html=1;verticalAlign=bottom;labelBackgroundColor=none;endArrow=open;endFill=0;dashed=1;rounded=0;exitX=1;exitY=0.5;exitDx=0;exitDy=0;entryX=0;entryY=0.5;entryDx=0;entryDy=0;" edge="1" parent="1" source="v8a3QN_SwFmeD_kxJxtt-22" target="v8a3QN_SwFmeD_kxJxtt-24">
          <mxGeometry width="160" relative="1" as="geometry">
            <mxPoint x="520" y="410" as="sourcePoint" />
            <mxPoint x="680" y="410" as="targetPoint" />
          </mxGeometry>
        </mxCell>
        <mxCell id="v8a3QN_SwFmeD_kxJxtt-28" value="Notificar al camarero" style="ellipse;whiteSpace=wrap;html=1;" vertex="1" parent="1">
          <mxGeometry x="520" y="750" width="140" height="70" as="geometry" />
        </mxCell>
        <mxCell id="v8a3QN_SwFmeD_kxJxtt-29" value="&amp;lt;&amp;lt;include&amp;gt;&amp;gt;" style="html=1;verticalAlign=bottom;labelBackgroundColor=none;endArrow=open;endFill=0;dashed=1;rounded=0;exitX=1;exitY=0.5;exitDx=0;exitDy=0;entryX=0;entryY=0.5;entryDx=0;entryDy=0;" edge="1" parent="1" source="v8a3QN_SwFmeD_kxJxtt-19" target="v8a3QN_SwFmeD_kxJxtt-28">
          <mxGeometry width="160" relative="1" as="geometry">
            <mxPoint x="670" y="715" as="sourcePoint" />
            <mxPoint x="720" y="715" as="targetPoint" />
          </mxGeometry>
        </mxCell>
        <mxCell id="v8a3QN_SwFmeD_kxJxtt-30" value="Modificar pedidos" style="ellipse;whiteSpace=wrap;html=1;" vertex="1" parent="1">
          <mxGeometry x="320" y="910" width="140" height="70" as="geometry" />
        </mxCell>
        <mxCell id="v8a3QN_SwFmeD_kxJxtt-33" value="Cerrar pedido" style="ellipse;whiteSpace=wrap;html=1;" vertex="1" parent="1">
          <mxGeometry x="320" y="990" width="140" height="70" as="geometry" />
        </mxCell>
        <mxCell id="v8a3QN_SwFmeD_kxJxtt-34" value="Notificar camarero" style="ellipse;whiteSpace=wrap;html=1;" vertex="1" parent="1">
          <mxGeometry x="320" y="1070" width="140" height="70" as="geometry" />
        </mxCell>
        <mxCell id="v8a3QN_SwFmeD_kxJxtt-35" value="" style="endArrow=none;html=1;rounded=0;entryX=0;entryY=0.5;entryDx=0;entryDy=0;" edge="1" parent="1" target="v8a3QN_SwFmeD_kxJxtt-34">
          <mxGeometry width="50" height="50" relative="1" as="geometry">
            <mxPoint x="250" y="860" as="sourcePoint" />
            <mxPoint x="140" y="1155" as="targetPoint" />
            <Array as="points">
              <mxPoint x="250" y="1105" />
            </Array>
          </mxGeometry>
        </mxCell>
        <mxCell id="v8a3QN_SwFmeD_kxJxtt-36" value="" style="endArrow=none;html=1;rounded=0;exitX=0;exitY=0.5;exitDx=0;exitDy=0;" edge="1" parent="1" source="v8a3QN_SwFmeD_kxJxtt-33">
          <mxGeometry width="50" height="50" relative="1" as="geometry">
            <mxPoint x="480" y="1030" as="sourcePoint" />
            <mxPoint x="250" y="1025" as="targetPoint" />
          </mxGeometry>
        </mxCell>
        <mxCell id="v8a3QN_SwFmeD_kxJxtt-37" value="" style="endArrow=none;html=1;rounded=0;exitX=0;exitY=0.5;exitDx=0;exitDy=0;" edge="1" parent="1" source="v8a3QN_SwFmeD_kxJxtt-30">
          <mxGeometry width="50" height="50" relative="1" as="geometry">
            <mxPoint x="330" y="1035" as="sourcePoint" />
            <mxPoint x="250" y="945" as="targetPoint" />
          </mxGeometry>
        </mxCell>
        <mxCell id="v8a3QN_SwFmeD_kxJxtt-38" value="" style="endArrow=none;html=1;rounded=0;" edge="1" parent="1">
          <mxGeometry width="50" height="50" relative="1" as="geometry">
            <mxPoint x="190" y="640" as="sourcePoint" />
            <mxPoint x="190" y="490" as="targetPoint" />
          </mxGeometry>
        </mxCell>
        <mxCell id="v8a3QN_SwFmeD_kxJxtt-39" value="" style="endArrow=none;html=1;rounded=0;exitX=0;exitY=0.5;exitDx=0;exitDy=0;" edge="1" parent="1" source="v8a3QN_SwFmeD_kxJxtt-22">
          <mxGeometry width="50" height="50" relative="1" as="geometry">
            <mxPoint x="200" y="650" as="sourcePoint" />
            <mxPoint x="190" y="640" as="targetPoint" />
          </mxGeometry>
        </mxCell>
        <mxCell id="v8a3QN_SwFmeD_kxJxtt-40" value="" style="endArrow=none;html=1;rounded=0;exitX=0;exitY=0.5;exitDx=0;exitDy=0;" edge="1" parent="1" source="v8a3QN_SwFmeD_kxJxtt-21">
          <mxGeometry width="50" height="50" relative="1" as="geometry">
            <mxPoint x="210" y="660" as="sourcePoint" />
            <mxPoint x="190" y="565" as="targetPoint" />
          </mxGeometry>
        </mxCell>
        <mxCell id="v8a3QN_SwFmeD_kxJxtt-41" value="Generar cuenta" style="ellipse;whiteSpace=wrap;html=1;" vertex="1" parent="1">
          <mxGeometry x="520" y="990" width="140" height="70" as="geometry" />
        </mxCell>
        <mxCell id="v8a3QN_SwFmeD_kxJxtt-42" value="&amp;lt;&amp;lt;include&amp;gt;&amp;gt;" style="html=1;verticalAlign=bottom;labelBackgroundColor=none;endArrow=open;endFill=0;dashed=1;rounded=0;exitX=1;exitY=0.5;exitDx=0;exitDy=0;entryX=0;entryY=0.5;entryDx=0;entryDy=0;" edge="1" parent="1" target="v8a3QN_SwFmeD_kxJxtt-41">
          <mxGeometry width="160" relative="1" as="geometry">
            <mxPoint x="460" y="1025" as="sourcePoint" />
            <mxPoint x="680" y="790" as="targetPoint" />
          </mxGeometry>
        </mxCell>
      </root>
    </mxGraphModel>
  </diagram>
</mxfile>
